<?xml version="1.0" standalone="no"?>
<!DOCTYPE svg PUBLIC "-//W3C//DTD SVG 20010904//EN"
 "http://www.w3.org/TR/2001/REC-SVG-20010904/DTD/svg10.dtd">
<svg version="1.0" xmlns="http://www.w3.org/2000/svg"
 width="512.000000pt" height="512.000000pt" viewBox="0 0 512.000000 512.000000"
 preserveAspectRatio="xMidYMid meet">

<g transform="translate(0.000000,512.000000) scale(0.100000,-0.100000)"
fill="#000000" stroke="none">
<path d="M191 4898 c-65 -25 -134 -90 -164 -156 -21 -45 -22 -60 -22 -352 0
-290 1 -307 21 -351 29 -63 83 -120 141 -149 41 -21 65 -25 161 -28 61 -2 112
-7 112 -12 0 -4 -7 -27 -15 -50 -22 -62 -22 -588 0 -650 8 -23 15 -46 15 -51
0 -5 -47 -9 -103 -9 -96 0 -109 -2 -165 -30 -68 -35 -115 -82 -146 -149 -20
-44 -21 -62 -21 -351 0 -289 1 -307 21 -351 28 -61 78 -116 128 -141 23 -11
42 -21 44 -23 1 -1 -8 -24 -20 -51 -22 -47 -23 -59 -23 -349 0 -290 1 -302 22
-349 13 -27 23 -50 23 -51 0 -2 -10 -5 -23 -9 -41 -10 -115 -84 -144 -144
l-28 -57 0 -305 c0 -292 1 -307 22 -352 31 -68 99 -131 167 -157 l57 -21 1208
0 1208 0 21 23 c29 31 29 80 0 107 -22 20 -28 20 -1212 20 -1153 0 -1192 1
-1233 20 -81 36 -83 46 -83 361 0 270 0 277 23 310 48 73 4 69 860 69 l768 0
24 25 c40 39 32 96 -16 120 -24 13 -132 15 -716 15 -669 0 -689 1 -721 20 -18
11 -41 34 -52 52 -19 31 -20 51 -20 303 0 252 1 272 20 303 11 18 34 41 52 52
32 19 52 20 644 20 630 0 664 2 684 40 19 35 12 77 -16 99 -26 21 -34 21 -723
21 -776 0 -740 -3 -788 69 -23 33 -23 40 -23 310 0 256 1 278 20 308 10 18 31
40 47 50 26 17 80 18 948 20 668 2 926 6 942 14 54 29 43 117 -17 138 -24 8
-237 11 -734 11 -678 0 -702 1 -733 20 -65 39 -68 55 -68 355 0 263 1 271 23
306 46 74 -69 69 1489 69 1377 0 1398 0 1431 -20 48 -29 72 -75 72 -138 0
-104 59 -152 123 -102 33 26 42 73 28 151 -13 78 -46 142 -94 186 -64 57 -116
75 -238 81 l-107 5 17 36 c14 31 16 79 16 336 l0 300 -27 57 c-34 73 -95 132
-164 158 -54 20 -69 20 -1472 19 -1409 0 -1417 0 -1471 -21z m2896 -148 c81
-36 83 -46 83 -361 0 -270 0 -277 -23 -310 -12 -19 -38 -42 -57 -51 -33 -17
-122 -18 -1425 -18 -1303 0 -1392 1 -1425 18 -19 9 -45 32 -57 51 -23 33 -23
40 -23 310 0 315 2 325 83 361 41 19 83 20 1422 20 1339 0 1381 -1 1422 -20z"/>
<path d="M3370 3524 c-300 -23 -551 -101 -787 -245 -254 -156 -478 -400 -614
-670 -122 -244 -174 -465 -174 -749 0 -228 27 -378 101 -580 121 -327 364
-629 659 -818 387 -249 873 -325 1325 -207 600 156 1076 656 1204 1265 58 275
39 602 -50 870 -86 257 -271 538 -469 711 -88 77 -199 157 -228 164 -30 8 -61
-7 -82 -39 -25 -38 -10 -72 54 -118 428 -312 652 -739 652 -1244 0 -395 -142
-755 -409 -1036 -496 -520 -1265 -624 -1882 -253 -99 59 -176 121 -276 220
-290 287 -443 656 -444 1065 0 526 261 996 712 1283 144 92 353 172 523 202
276 48 591 17 834 -84 89 -37 114 -38 146 -6 32 31 33 75 3 102 -51 45 -282
119 -458 147 -101 16 -265 25 -340 20z"/>
<path d="M3251 3044 c-366 -61 -697 -307 -866 -644 -87 -174 -125 -340 -125
-544 1 -174 26 -310 64 -343 31 -27 63 -29 93 -8 31 22 36 59 17 149 -23 109
-23 304 0 415 96 457 466 787 929 830 447 42 872 -210 1049 -622 168 -388 87
-837 -204 -1138 -132 -137 -298 -235 -483 -286 -91 -25 -115 -28 -270 -28
-144 1 -182 4 -252 23 -278 75 -511 250 -647 485 -47 80 -96 98 -141 52 -34
-33 -31 -69 10 -138 261 -433 773 -659 1265 -561 413 83 752 375 895 772 55
154 78 338 64 510 -46 543 -462 989 -1001 1077 -113 18 -284 18 -397 -1z"/>
<path d="M3405 2605 c-17 -16 -25 -35 -25 -59 0 -34 -1 -35 -61 -52 -104 -29
-205 -109 -251 -199 -9 -16 -21 -56 -27 -87 -35 -167 84 -343 271 -399 l68
-21 0 -210 0 -209 -22 6 c-80 24 -168 114 -168 171 0 103 -103 142 -149 56 -9
-17 -9 -37 -1 -79 25 -139 128 -247 278 -293 56 -17 57 -19 63 -59 7 -53 29
-75 74 -75 45 0 67 22 74 75 6 41 8 43 51 54 115 30 223 116 269 215 37 81 36
183 -3 268 -47 102 -149 182 -270 213 l-46 11 0 210 0 209 23 -7 c93 -28 150
-87 167 -171 7 -32 17 -64 23 -72 33 -40 107 -30 127 19 23 54 -10 164 -72
242 -42 54 -132 111 -207 132 l-61 17 0 39 c0 71 -76 105 -125 55z m-25 -456
l0 -200 -22 7 c-102 31 -168 108 -168 194 0 46 26 104 62 137 21 20 103 62
121 63 4 0 7 -90 7 -201z m213 -395 c41 -21 95 -71 113 -106 34 -66 6 -173
-59 -222 -29 -22 -96 -56 -112 -56 -3 0 -5 90 -5 200 0 221 -2 216 63 184z"/>
</g>
</svg>
