<?xml version="1.0" standalone="no"?>
<!DOCTYPE svg PUBLIC "-//W3C//DTD SVG 20010904//EN"
 "http://www.w3.org/TR/2001/REC-SVG-20010904/DTD/svg10.dtd">
<svg version="1.0" xmlns="http://www.w3.org/2000/svg"
 width="225.000000pt" height="225.000000pt" viewBox="0 0 225.000000 225.000000"
 preserveAspectRatio="xMidYMid meet">

<g transform="translate(0.000000,225.000000) scale(0.100000,-0.100000)"
fill="#000000" stroke="none">
<path d="M7 2243 c-4 -3 -7 -186 -7 -405 l0 -398 410 0 410 0 0 405 0 405
-403 0 c-222 0 -407 -3 -410 -7z m613 -403 l0 -210 -210 0 -210 0 0 210 0 210
210 0 210 0 0 -210z"/>
<path d="M1022 2148 l3 -103 103 -3 102 -3 0 106 0 105 -105 0 -106 0 3 -102z"/>
<path d="M1430 1845 l0 -405 408 0 407 0 -3 405 -2 405 -405 0 -405 0 0 -405z
m620 -5 l0 -210 -210 0 -210 0 0 210 0 210 210 0 210 0 0 -210z"/>
<path d="M1020 1535 l0 -305 -100 0 -100 0 0 -100 0 -100 100 0 100 0 0 100 0
100 105 0 105 0 0 -100 0 -100 -100 0 -100 0 0 -105 0 -105 100 0 100 0 0
-100 0 -100 -105 0 -105 0 0 -305 0 -305 105 0 105 0 0 205 0 205 100 0 100 0
0 200 0 200 105 0 105 0 0 105 0 105 100 0 100 0 0 100 0 100 -105 0 -105 0 0
-100 0 -100 -100 0 -100 0 0 100 0 100 -100 0 -100 0 0 305 0 305 -105 0 -105
0 0 -305z"/>
<path d="M0 1130 l0 -100 105 0 105 0 0 100 0 100 -105 0 -105 0 0 -100z"/>
<path d="M410 1130 l0 -100 105 0 105 0 0 100 0 100 -105 0 -105 0 0 -100z"/>
<path d="M2040 1130 l0 -100 103 0 102 0 0 100 0 100 -102 0 -103 0 0 -100z"/>
<path d="M1840 815 l0 -205 -100 0 -100 0 0 -100 0 -100 -105 0 -105 0 0 -200
0 -200 210 0 210 0 0 100 0 100 -105 0 -105 0 0 100 0 100 205 0 205 0 0 103
0 102 97 0 98 0 0 100 0 100 -97 3 -98 3 0 99 0 100 -105 0 -105 0 0 -205z"/>
<path d="M0 415 l0 -405 410 0 410 0 0 405 0 405 -410 0 -410 0 0 -405z m620
-5 l0 -210 -210 0 -210 0 0 210 0 210 210 0 210 0 0 -210z"/>
<path d="M2047 203 c-4 -3 -7 -51 -7 -105 l0 -98 105 0 105 0 0 105 0 105 -98
0 c-54 0 -102 -3 -105 -7z"/>
</g>
</svg>
